<svg width="33" height="32" viewBox="0 0 33 32" fill="none" xmlns="http://www.w3.org/2000/svg">
<path d="M13.4688 0C18.6563 0 21.7396 0.1875 22.7188 0.5625C22.9896 0.6875 23.3438 0.90625 23.7813 1.21875C24.0938 1.46875 24.6615 1.67188 25.4844 1.82812C26.3073 1.98438 27.6771 2.125 29.5938 2.25C29.7605 2.27083 29.9115 2.3125 30.0469 2.375C30.1823 2.4375 30.2917 2.52083 30.375 2.625C30.4167 2.6875 30.5 2.82292 30.625 3.03125C30.75 3.23958 30.9271 3.58854 31.1563 4.07812C31.3855 4.56771 31.599 5.10417 31.7969 5.6875C31.9948 6.27083 32.1667 7 32.3125 7.875C32.4584 8.75 32.5313 9.63542 32.5313 10.5312C32.5313 13.5521 32.0209 15.8854 31 17.5312C30.9375 17.6146 30.8594 17.6927 30.7657 17.7656C30.6719 17.8385 30.573 17.8958 30.4688 17.9375C30.3646 17.9792 30.25 18 30.125 18C28.375 18 26.4532 19.0625 24.3594 21.1875C22.2657 23.3125 20.4584 26.1979 18.9375 29.8438C18.5625 30.6979 18.3021 31.2083 18.1563 31.375C17.7605 31.7708 17.1355 31.9792 16.2813 32C15.7188 32 15.1511 31.8229 14.5782 31.4688C14.0052 31.1146 13.5521 30.6667 13.2188 30.125C12.823 29.4792 12.5938 28.5521 12.5313 27.3438C12.4688 26.1354 12.5052 25.0104 12.6407 23.9688C12.7761 22.9271 12.9584 21.9271 13.1875 20.9688C9.43754 20.9896 6.91671 21 5.62504 21C4.39587 21 3.40108 20.6667 2.64067 20C1.88025 19.3333 1.48962 18.4583 1.46879 17.375C1.44796 16.4583 1.54171 15.7604 1.75004 15.2812C0.916707 14.4688 0.489624 13.6667 0.468791 12.875C0.447957 11.8958 0.927124 10.8958 1.90629 9.875C1.88546 9.83333 1.84379 9.73438 1.78129 9.57812C1.71879 9.42188 1.67192 9.29167 1.64067 9.1875C1.60942 9.08333 1.58337 8.95312 1.56254 8.79688C1.54171 8.64062 1.53129 8.48958 1.53129 8.34375C1.57296 7.19792 2.23962 6.17708 3.53129 5.28125C3.42712 4.59375 3.43754 3.97917 3.56254 3.4375C4.06254 1.14583 7.36462 0 13.4688 0ZM29.0625 4.28125C25.6459 4.01042 23.4792 3.53125 22.5625 2.84375L22.4688 2.75C22.2813 2.625 22.1302 2.53125 22.0157 2.46875C21.9011 2.40625 21.6719 2.33854 21.3282 2.26562C20.9844 2.19271 20.5105 2.14062 19.9063 2.10938C19.3021 2.07812 18.4792 2.05208 17.4375 2.03125C16.3959 2.01042 15.073 2 13.4688 2C8.42712 2 5.77087 2.625 5.50004 3.875C5.41671 4.33333 5.61462 4.80208 6.09379 5.28125C6.19796 5.53125 6.19796 5.78646 6.09379 6.04688C5.98962 6.30729 5.82296 6.48958 5.59379 6.59375H5.56254C5.45837 6.63542 5.33337 6.6875 5.18754 6.75C5.04171 6.8125 4.82817 6.92708 4.54692 7.09375C4.26567 7.26042 4.03129 7.46354 3.84379 7.70312C3.65629 7.94271 3.55212 8.1875 3.53129 8.4375C3.53129 8.5 3.5365 8.56771 3.54692 8.64062C3.55733 8.71354 3.56775 8.78125 3.57817 8.84375C3.58858 8.90625 3.60942 8.96875 3.64067 9.03125L3.71879 9.1875L3.79692 9.3125L3.87504 9.42188L3.93754 9.5L3.98442 9.5625L4.00004 9.59375C4.14587 9.80208 4.19275 10.0417 4.14067 10.3125C4.08858 10.5833 3.95837 10.8021 3.75004 10.9688C3.62504 11.0312 3.48962 11.1198 3.34379 11.2344C3.19796 11.349 3.01567 11.5625 2.79692 11.875C2.57817 12.1875 2.46879 12.5 2.46879 12.8125C2.48962 13.3333 2.88546 13.8229 3.65629 14.2812C3.92712 14.4271 4.09379 14.6562 4.15629 14.9688C4.17712 15.1146 4.17192 15.2552 4.14067 15.3906C4.10942 15.526 4.05212 15.6562 3.96879 15.7812C3.92712 15.8229 3.88025 15.8958 3.82817 16C3.77608 16.1042 3.70317 16.2969 3.60942 16.5781C3.51567 16.8594 3.46879 17.1146 3.46879 17.3438C3.46879 17.4896 3.48962 17.6302 3.53129 17.7656C3.57296 17.901 3.62504 18.0208 3.68754 18.125C3.75004 18.2292 3.81775 18.3229 3.89067 18.4062C3.96358 18.4896 4.04692 18.5625 4.14067 18.625C4.23442 18.6875 4.32817 18.7396 4.42192 18.7812C4.51567 18.8229 4.61462 18.8594 4.71879 18.8906C4.82296 18.9219 4.91671 18.9427 5.00004 18.9531C5.08337 18.9635 5.17192 18.974 5.26567 18.9844C5.35942 18.9948 5.43233 19 5.48442 19H5.62504C8.81254 19 11.8125 18.9896 14.625 18.9688C14.9792 18.9688 15.2605 19.125 15.4688 19.4375C15.6563 19.7083 15.6875 20.0208 15.5625 20.375C15.0417 21.875 14.7032 23.4896 14.5469 25.2188C14.3907 26.9479 14.5209 28.2396 14.9375 29.0938C14.9584 29.1354 15.0052 29.224 15.0782 29.3594C15.1511 29.4948 15.2084 29.5833 15.25 29.625C15.2917 29.6667 15.3594 29.724 15.4532 29.7969C15.5469 29.8698 15.6615 29.9219 15.7969 29.9531C15.9323 29.9844 16.0938 30 16.2813 30C16.5521 30 16.823 29.6875 17.0938 29.0625C18.698 25.1875 20.6355 22.099 22.9063 19.7969C25.1771 17.4948 27.375 16.2396 29.5 16.0312C30.1875 14.4896 30.5313 12.6562 30.5313 10.5312C30.5313 9.59375 30.4375 8.66146 30.25 7.73438C30.0625 6.80729 29.8698 6.07812 29.6719 5.54688C29.474 5.01562 29.2709 4.59375 29.0625 4.28125Z" fill="white"/>
</svg>
