<svg width="16" height="16" viewBox="0 0 16 16" fill="none" xmlns="http://www.w3.org/2000/svg">
<path d="M6 2.5C5.1775 2.5 4.5 3.1775 4.5 4C4.5 4.176 4.537 4.342 4.594 4.5H2V7.5H2.5V14H13.5V7.5H14V4.5H11.406C11.4661 4.34004 11.4979 4.17085 11.5 4C11.5 3.1775 10.8225 2.5 10 2.5C9.125 2.5 8.531 3.164 8.1405 3.719C8.088 3.793 8.047 3.865 8 3.9375C7.953 3.865 7.912 3.7925 7.8595 3.7185C7.469 3.1645 6.875 2.5 6 2.5ZM6 3.5C6.3125 3.5 6.719 3.836 7.0315 4.2815C7.1075 4.3905 7.0955 4.3965 7.1565 4.5H6C5.717 4.5 5.5 4.283 5.5 4C5.5 3.717 5.717 3.5 6 3.5ZM10 3.5C10.283 3.5 10.5 3.717 10.5 4C10.5 4.283 10.283 4.5 10 4.5H8.8435C8.9045 4.3965 8.8925 4.3905 8.9685 4.281C9.2815 3.8365 9.6875 3.5 10 3.5ZM3 5.5H13V6.5H8.5V6H7.5V6.5H3V5.5ZM3.5 7.5H12.5V13H8.5V8H7.5V13H3.5V7.5Z" fill="white"/>
</svg>
