<svg width="33" height="32" viewBox="0 0 33 32" fill="none" xmlns="http://www.w3.org/2000/svg">
<path d="M19.5312 32C17.2812 32 15.526 31.9792 14.2656 31.9375C13.0052 31.8958 12.0365 31.8073 11.3594 31.6719C10.6823 31.5365 10.2552 31.4219 10.0781 31.3281C9.90104 31.2344 9.61458 31.0521 9.21875 30.7812C8.90625 30.5312 8.33854 30.3281 7.51562 30.1719C6.69271 30.0156 5.32292 29.875 3.40625 29.75C3.07292 29.7292 2.8125 29.6042 2.625 29.375C2.58333 29.3125 2.5 29.1771 2.375 28.9688C2.25 28.7604 2.07292 28.4115 1.84375 27.9219C1.61458 27.4323 1.40104 26.8958 1.20312 26.3125C1.00521 25.7292 0.833333 25 0.6875 24.125C0.541667 23.25 0.46875 22.3646 0.46875 21.4688C0.46875 18.4271 0.979167 16.0938 2 14.4688C2.20833 14.1562 2.5 14 2.875 14C4.625 14 6.54688 12.9375 8.64062 10.8125C10.7344 8.6875 12.5417 5.80208 14.0625 2.15625C14.1042 2.09375 14.1719 1.94792 14.2656 1.71875C14.3594 1.48958 14.4167 1.34375 14.4375 1.28125C14.4583 1.21875 14.5156 1.09896 14.6094 0.921875C14.7031 0.744792 14.7865 0.630208 14.8594 0.578125C14.9323 0.526042 15.0312 0.447917 15.1562 0.34375C15.2812 0.239583 15.4115 0.171875 15.5469 0.140625C15.6823 0.109375 15.849 0.078125 16.0469 0.046875C16.2448 0.015625 16.4688 0 16.7188 0C17.0938 0 17.4792 0.0833333 17.875 0.25C18.2708 0.416667 18.6354 0.640625 18.9688 0.921875C19.3021 1.20312 19.5729 1.52083 19.7812 1.875C20.1771 2.52083 20.4062 3.44792 20.4688 4.65625C20.5312 5.86458 20.4948 6.98958 20.3594 8.03125C20.224 9.07292 20.0417 10.0729 19.8125 11.0312C23.5208 11.0104 26.0417 11 27.375 11C28.6042 11 29.599 11.3333 30.3594 12C31.1198 12.6667 31.5104 13.5417 31.5312 14.625C31.5521 15.5417 31.4583 16.2396 31.25 16.7188C31.6042 17.0729 31.901 17.4427 32.1406 17.8281C32.3802 18.2135 32.5104 18.6458 32.5312 19.125C32.5521 20.1042 32.0729 21.1042 31.0938 22.125C31.1146 22.1667 31.1562 22.2656 31.2188 22.4219C31.2812 22.5781 31.3281 22.7083 31.3594 22.8125C31.3906 22.9167 31.4167 23.0469 31.4375 23.2031C31.4583 23.3594 31.4688 23.5104 31.4688 23.6562C31.4271 24.8021 30.7604 25.8229 29.4688 26.7188C29.5729 27.4062 29.5625 28.0208 29.4375 28.5625C28.9375 30.8542 25.6354 32 19.5312 32ZM3.9375 27.7188C7.35417 27.9896 9.52083 28.4688 10.4375 29.1562C10.7708 29.4062 11.0625 29.5729 11.3125 29.6562C11.5625 29.7396 12.3125 29.8177 13.5625 29.8906C14.8125 29.9635 16.8021 30 19.5312 30C20.3854 30 21.1615 29.9792 21.8594 29.9375C22.5573 29.8958 23.3646 29.8229 24.2812 29.7188C25.1979 29.6146 25.9375 29.4271 26.5 29.1562C27.0625 28.8854 27.3958 28.5417 27.5 28.125C27.5833 27.6875 27.3854 27.2188 26.9062 26.7188C26.8021 26.4688 26.8021 26.2135 26.9062 25.9531C27.0104 25.6927 27.1771 25.5104 27.4062 25.4062H27.4375C27.5417 25.3646 27.6667 25.3125 27.8125 25.25C27.9583 25.1875 28.1719 25.0729 28.4531 24.9062C28.7344 24.7396 28.9688 24.5365 29.1562 24.2969C29.3438 24.0573 29.4479 23.8229 29.4688 23.5938C29.4688 23.5104 29.4635 23.4323 29.4531 23.3594C29.4427 23.2865 29.4323 23.2188 29.4219 23.1562C29.4115 23.0938 29.3906 23.0312 29.3594 22.9688L29.2812 22.8125L29.2031 22.6875L29.125 22.5781L29.0625 22.5L29.0156 22.4375L29 22.4062C28.9167 22.3021 28.8646 22.1875 28.8438 22.0625C28.8229 21.9375 28.8229 21.8125 28.8438 21.6875C28.8646 21.5625 28.9115 21.4427 28.9844 21.3281C29.0573 21.2135 29.1458 21.1146 29.25 21.0312C29.375 20.9688 29.5104 20.8802 29.6562 20.7656C29.8021 20.651 29.9844 20.4375 30.2031 20.125C30.4219 19.8125 30.5312 19.5 30.5312 19.1875C30.5104 18.6667 30.1146 18.1771 29.3438 17.7188C29.2188 17.6354 29.1146 17.5365 29.0312 17.4219C28.9479 17.3073 28.8854 17.1771 28.8438 17.0312C28.8229 16.9479 28.8177 16.8594 28.8281 16.7656C28.8385 16.6719 28.8594 16.5781 28.8906 16.4844C28.9219 16.3906 28.9688 16.3021 29.0312 16.2188C29.0521 16.1979 29.0729 16.1719 29.0938 16.1406C29.1146 16.1094 29.1562 16.0312 29.2188 15.9062C29.2812 15.7812 29.3333 15.6615 29.375 15.5469C29.4167 15.4323 29.4531 15.2917 29.4844 15.125C29.5156 14.9583 29.5312 14.8021 29.5312 14.6562C29.5104 14.2812 29.4115 13.9688 29.2344 13.7188C29.0573 13.4688 28.8281 13.2969 28.5469 13.2031C28.2656 13.1094 28.0417 13.0521 27.875 13.0312C27.7083 13.0104 27.5417 13 27.375 13H20.0625L18.375 13.0312C18.2917 13.0312 18.2083 13.0208 18.125 13C18.0417 12.9792 17.9635 12.9479 17.8906 12.9062C17.8177 12.8646 17.75 12.8177 17.6875 12.7656C17.625 12.7135 17.5729 12.6458 17.5312 12.5625C17.3438 12.2917 17.3125 11.9792 17.4375 11.625C17.7708 10.6667 18.0365 9.61458 18.2344 8.46875C18.4323 7.32292 18.526 6.22917 18.5156 5.1875C18.5052 4.14583 18.3542 3.38542 18.0625 2.90625C18.0417 2.86458 18 2.79167 17.9375 2.6875C17.875 2.58333 17.8333 2.51042 17.8125 2.46875C17.7917 2.42708 17.7448 2.36979 17.6719 2.29688C17.599 2.22396 17.526 2.17188 17.4531 2.14062C17.3802 2.10938 17.2812 2.07812 17.1562 2.04688C17.0312 2.01562 16.8854 2 16.7188 2C16.6562 2 16.5938 2.02083 16.5312 2.0625C16.4688 2.10417 16.375 2.19792 16.25 2.34375C16.125 2.48958 16.0104 2.6875 15.9062 2.9375C14.3021 6.8125 12.3646 9.90104 10.0938 12.2031C7.82292 14.5052 5.625 15.7604 3.5 15.9688C3.33333 16.3438 3.1875 16.7188 3.0625 17.0938C2.9375 17.4688 2.80729 18.0625 2.67188 18.875C2.53646 19.6875 2.46875 20.5521 2.46875 21.4688C2.46875 22.4062 2.5625 23.3385 2.75 24.2656C2.9375 25.1927 3.13021 25.9219 3.32812 26.4531C3.52604 26.9844 3.72917 27.4062 3.9375 27.7188Z" fill="white"/>
</svg>
