<svg width="20" height="20" viewBox="0 0 20 20" fill="none" xmlns="http://www.w3.org/2000/svg">
<path d="M5.727 4.31296L1.707 0.292958L0.293 1.70696L18.293 19.707L19.707 18.293L17.687 16.273C19.1861 14.5275 20.0068 12.3008 19.999 9.99996C19.999 5.90896 17.527 2.54696 14 0.999958V2.99996C16.387 4.38596 17.999 7.04696 17.999 9.99996C17.9939 11.7765 17.4069 13.5025 16.328 14.914L15.042 13.628C15.644 12.536 16 11.19 16 9.99996C16 8.22896 15.225 6.09996 14 4.99996V12.586L12 10.586V0.131958L5.727 4.31296ZM2 15H4.697L12 19.868V16.121L1.102 5.22296C0.771889 5.3882 0.4941 5.64179 0.299543 5.95552C0.104986 6.26925 0.00129227 6.6308 0 6.99996V13C0 14.103 0.897 15 2 15Z" fill="white"/>
</svg>
