<svg width="314" height="67" viewBox="0 0 314 67" fill="none" xmlns="http://www.w3.org/2000/svg">
<path d="M43.3145 65H30.8829L12.5028 32.1538V67H0V14H12.5028L30.8473 45.8462V11H43.3145V65Z" fill="#D31010"/>
<path d="M88.494 38.2692H68.8315V51.6154H92.0561V62H56.3288V6H92.1273V16.4231H68.8315V28.2308H88.494V38.2692Z" fill="#D31010"/>
<path d="M143.683 10.4231L128.117 12.4231V58H115.614V12.4231L100.333 14.4231V2L143.683 0V10.4231Z" fill="#D31010"/>
<path d="M186.761 35.6923H166.6V58H154.097V0L188.791 2V14.4231L166.6 13.4231V25.3077H186.761V35.6923Z" fill="#D31010"/>
<path d="M211.601 47.6154H233.365V58H199.098V2L211.601 4V47.6154Z" fill="#D31010"/>
<path d="M257.066 59H244.599V4L257.066 5V59Z" fill="#D31010"/>
<path d="M290.847 29.6154L299.324 14H313.608L299.111 38.7692L314 67H299.574L290.847 48.0385L282.12 65H267.729L282.583 38.7692L268.121 11H282.369L290.847 29.6154Z" fill="#D31010"/>
</svg>
