<svg width="1052" height="269" viewBox="0 0 1052 269" fill="none" xmlns="http://www.w3.org/2000/svg">
<path d="M635.357 0.0231934H593.243V235.53C631.515 236.846 669.629 238.778 707.583 241.307V199.815C683.574 198.213 659.496 196.855 635.357 195.732V0.0231934ZM1051.01 0.0463934H1004.76L974.277 70.7181L946.865 0.0463934H901.307L950.268 126.333L896.807 250.22C911.59 251.662 926.34 253.201 941.069 254.828L972.15 182.792L1002.94 262.199C1018.98 264.261 1034.97 266.412 1050.94 268.69L1051 268.663L996.173 127.184L1051.01 0.0463934ZM448.708 233.473L490.821 233.463V137.663H547.905V96.1707H490.821V41.9109H566.266V0.0452534H448.707L448.708 233.473ZM291.456 41.9148H335.527V235.941C349.54 235.413 363.582 234.977 377.638 234.609V41.9119H421.711V0.0434634H291.455L291.456 41.9148ZM741.488 245.004C780.3 241.477 819.292 251.571 858.46 249.315V207.818C833.435 209.264 808.477 200.976 783.595 202.933V140.114C799.921 139.951 821.419 139.453 840.464 139.69V98.1937C825.249 98.1569 800.794 98.4064 783.595 98.6267V41.9161H858.46V0.0504761H741.488V245.004ZM94.8761 152.082L40.0326 0.0463734H0.0107422V268.7C14.021 266.706 28.0571 264.796 42.1219 262.964V116.868L90.887 256.963C106.226 255.184 121.592 253.499 136.987 251.915V0.0436434H94.8733L94.8761 152.082ZM202.326 243.81C216.387 244.886 230.42 241.04 244.44 242.288V0.0466434H202.326V243.81Z" fill="#DB202C"/>
</svg>
