<svg width="25" height="25" viewBox="0 0 25 25" fill="none" xmlns="http://www.w3.org/2000/svg">
<path d="M10.1325 4.98975C10.1083 4.98975 10.085 4.99375 10.0618 4.997V4.98975H7.47752C7.33411 4.98975 7.19657 5.04672 7.09516 5.14813C6.99375 5.24954 6.93677 5.38708 6.93677 5.5305V5.53175H6.93652V19.4675H6.93677L6.93652 19.4697C6.93652 19.7682 7.17877 20.0102 7.47727 20.0102H10.1323C10.2756 20.0102 10.4131 19.9533 10.5145 19.8519C10.6158 19.7506 10.6728 19.6131 10.6728 19.4697L10.6725 19.4675H10.6728V5.53175L10.673 5.5305C10.673 5.38712 10.6161 5.24962 10.5147 5.14822C10.4134 5.04681 10.2759 4.98981 10.1325 4.98975V4.98975Z" fill="white"/>
<path d="M18.0629 19.4675V5.53175L18.0632 5.5305C18.0632 5.38712 18.0062 5.24962 17.9049 5.14822C17.8035 5.04681 17.666 4.98981 17.5227 4.98975C17.4984 4.98975 17.4752 4.99375 17.4519 4.997V4.98975H14.8677C14.7242 4.98975 14.5867 5.04672 14.4853 5.14813C14.3839 5.24954 14.3269 5.38708 14.3269 5.5305V5.53175H14.3267V19.4675H14.3269L14.3267 19.4697C14.3267 19.7682 14.5689 20.0102 14.8674 20.0102H17.5219C17.6653 20.0102 17.8027 19.9533 17.9041 19.8519C18.0055 19.7506 18.0624 19.6131 18.0624 19.4697C18.0629 19.469 18.0627 19.4682 18.0629 19.4675Z" fill="white"/>
</svg>
