<svg width="16" height="16" viewBox="0 0 16 16" fill="none" xmlns="http://www.w3.org/2000/svg">
<path d="M3.5 14C3.36739 14 3.24021 13.9473 3.14645 13.8536C3.05268 13.7598 3 13.6326 3 13.5V2.5C3.00004 2.4122 3.0232 2.32596 3.06714 2.24995C3.11109 2.17394 3.17428 2.11085 3.25035 2.06701C3.32642 2.02317 3.41269 2.00014 3.50049 2.00022C3.58829 2.00031 3.67452 2.02351 3.7505 2.0675L13.2505 7.5675C13.3263 7.61145 13.3892 7.67454 13.4329 7.75044C13.4766 7.82635 13.4996 7.9124 13.4996 8C13.4996 8.08759 13.4766 8.17365 13.4329 8.24955C13.3892 8.32546 13.3263 8.38854 13.2505 8.4325L3.7505 13.9325C3.67441 13.9767 3.58799 14 3.5 14V14Z" fill="black"/>
</svg>
