<svg width="14" height="14" viewBox="0 0 14 14" fill="none" xmlns="http://www.w3.org/2000/svg">
<path d="M13.08 6.04006L1.47003 0.235056C1.31341 0.16249 1.14112 0.130251 0.968856 0.141272C0.796589 0.152294 0.629815 0.206226 0.483714 0.29816C0.337614 0.390094 0.216827 0.51711 0.13235 0.667645C0.0478724 0.81818 0.0023874 0.987454 3.51056e-05 1.16006V12.7651C-0.00142758 12.9422 0.04284 13.1168 0.128559 13.2719C0.214279 13.4269 0.338551 13.5573 0.489365 13.6503C0.640178 13.7433 0.812433 13.7958 0.989479 13.8028C1.16653 13.8097 1.34238 13.7709 1.50004 13.6901L13.08 7.88506C13.2516 7.79895 13.3958 7.66684 13.4966 7.50349C13.5973 7.34014 13.6507 7.15199 13.6507 6.96006C13.6507 6.76812 13.5973 6.57997 13.4966 6.41662C13.3958 6.25327 13.2516 6.12116 13.08 6.03506V6.04006Z" fill="white"/>
</svg>
