<svg width="16" height="16" viewBox="0 0 16 16" fill="none" xmlns="http://www.w3.org/2000/svg">
<path d="M7.54309 2.375H8.56941C8.66064 2.375 8.70625 2.41667 8.70625 2.5V13.5C8.70625 13.5833 8.66064 13.625 8.56941 13.625H7.54309C7.45186 13.625 7.40625 13.5833 7.40625 13.5V2.5C7.40625 2.41667 7.45186 2.375 7.54309 2.375Z" fill="white"/>
<path d="M2.75 7.40625H13.25C13.3333 7.40625 13.375 7.45186 13.375 7.54309V8.56941C13.375 8.66064 13.3333 8.70625 13.25 8.70625H2.75C2.66667 8.70625 2.625 8.66064 2.625 8.56941V7.54309C2.625 7.45186 2.66667 7.40625 2.75 7.40625Z" fill="white"/>
</svg>
