<svg width="54" height="59" viewBox="0 0 54 59" fill="none" xmlns="http://www.w3.org/2000/svg">
<path fill-rule="evenodd" clip-rule="evenodd" d="M3 3V56H51V3H3ZM1 0C0.447715 0 0 0.447717 0 1V58C0 58.5523 0.447715 59 0.999999 59H53C53.5523 59 54 58.5523 54 58V1C54 0.447715 53.5523 0 53 0H1Z" fill="#FDFDFD"/>
<path d="M18.9727 9.03986L13.8741 9.04242L13.8826 24.9492L11.0637 25.9506L11.0552 9.04383L6.00153 9.04637L6.00015 6.29159L18.9713 6.28509L18.9727 9.03986Z" fill="#FFFEFE"/>
<path d="M33.8681 15.6215C33.8691 17.5481 33.5929 19.2407 33.0396 20.6994C32.4863 22.1491 31.6932 23.2658 30.6604 24.0495C29.6351 24.8243 28.4524 25.212 27.1122 25.2126C25.787 25.2133 24.6039 24.8268 23.5628 24.0531C22.5292 23.2704 21.7275 22.159 21.1578 20.7189C20.5955 19.2787 20.3102 18.6179 20.3018 16.7364L20.3012 15.6291C20.3003 13.7115 20.5802 11.0189 21.141 9.5512C21.7092 8.0835 22.506 6.96229 23.5314 6.18755C24.5642 5.40381 25.7469 5.01161 27.0796 5.01094C28.4123 5.01027 29.5917 5.39679 30.6178 6.1705C31.6514 6.93519 32.4493 8.04211 33.0115 9.49123C33.5738 10.9314 33.8591 12.6102 33.8676 14.5277L33.8681 15.6215ZM31.0263 14.5967C31.0252 12.4181 30.68 10.7483 29.9906 9.58728C29.3087 8.42629 28.3388 7.84611 27.081 7.84674C25.8532 7.84736 24.8914 8.42851 24.1957 9.59018C23.5074 10.7429 23.1564 12.377 23.1425 14.4926L23.143 15.6269C23.1441 17.7875 23.4931 19.4573 24.19 20.6363C24.8943 21.8153 25.8679 22.4045 27.1108 22.4038C28.3686 22.4032 29.3341 21.8266 30.0074 20.6739C30.6881 19.5212 31.0279 17.8376 31.0268 15.623L31.0263 14.5967Z" fill="#FFFEFE"/>
<path d="M39.5405 18.6308L39.5442 25.9363L36.7029 24.9377L36.693 6.2762L42.9484 6.27306C44.7752 6.27214 46.2242 6.84308 47.2954 7.98586C48.3741 9.12865 48.914 10.6408 48.9149 12.5223C48.9159 14.4489 48.3888 15.9481 47.3337 17.0199C46.286 18.0917 44.8151 18.6281 42.9209 18.6291L39.5405 18.6308ZM39.5391 15.8895L42.9532 15.8878C43.964 15.8873 44.735 15.6033 45.2663 15.0359C45.7975 14.4594 46.0629 13.6311 46.0624 12.5508C46.0618 11.4885 45.7919 10.6424 45.2525 10.0125C44.7131 9.37355 43.9717 9.04533 43.0284 9.0278L39.5357 9.02955L39.5391 15.8895Z" fill="#FFFEFE"/>
<path d="M21.8123 49.0855L18.6219 49.099L18.5569 33.6875L13.8572 35.3157L13.8458 32.6131L21.3224 29.8262L21.7311 29.8245L21.8123 49.0855Z" fill="white"/>
<path d="M38.5 40.9299C38.5116 43.6897 38.0019 45.7748 36.9707 47.1854C35.9483 48.5872 34.3824 49.2926 32.273 49.3015C30.1988 49.3102 28.6315 48.6356 27.5711 47.2778C26.5194 45.9111 25.9748 43.8875 25.9371 41.207L25.9231 37.8848C25.9115 35.125 26.4169 33.053 27.4394 31.6688C28.4707 30.2846 30.0454 29.588 32.1635 29.5791C34.2641 29.5702 35.8314 30.236 36.8653 31.5764C37.9081 32.9167 38.4483 34.9272 38.486 37.6077L38.5 40.9299ZM35.2813 37.3575C35.2737 35.5558 35.0221 34.2385 34.5264 33.4056C34.0306 32.5639 33.2466 32.1453 32.1744 32.1499C31.1285 32.1543 30.3611 32.5574 29.8723 33.3593C29.3835 34.1524 29.1294 35.3927 29.1102 37.0803L29.1285 41.4308C29.1361 43.2238 29.3922 44.5587 29.8968 45.4355C30.4015 46.3122 31.19 46.7484 32.2622 46.7439C33.2906 46.7395 34.0491 46.332 34.5379 45.5214C35.0266 44.7019 35.2805 43.4264 35.2996 41.6949L35.2813 37.3575Z" fill="white"/>
</svg>
