<svg width="20" height="20" viewBox="0 0 20 20" fill="none" xmlns="http://www.w3.org/2000/svg">
<path d="M14.5 1.66597V1.10297C17.7584 2.73914 19.999 5.97319 19.999 9.868C20.0068 12.1688 19.5 14 17.687 16.141C16.4467 17.6057 15.1779 18.3426 14.5 18.6621L14 16.868C14 16.868 18.1756 14.868 17.999 9.868C17.8512 5.68402 16.551 4.74349 14.9586 3.59165L14.9586 3.59164C14.6481 3.36701 14.3264 3.13433 14 2.868M14.5 1.66597C14.3362 1.57851 14.1695 1.49534 14 1.41659V2.868M14.5 1.66597C17.4813 3.25761 19.499 6.26818 19.499 9.868L19.499 9.8697C19.5064 12.0624 19.0349 13.7755 17.3054 15.8179C16.4397 16.8403 15.5625 17.4877 14.9077 17.8779C14.7594 17.9662 14.6226 18.0413 14.5 18.1045V17.1645C14.6161 17.0965 14.7631 17.0055 14.9318 16.8902C15.3454 16.6076 15.8933 16.1765 16.4358 15.5792C17.5253 14.3797 18.5925 12.5077 18.4987 9.85035C18.4084 7.29232 17.894 5.83087 17.0756 4.79504C16.6727 4.2851 16.2125 3.89971 15.7443 3.54755C15.571 3.41721 15.4021 3.2951 15.234 3.17362C14.991 2.99797 14.7499 2.82365 14.5 2.62767M14.5 1.66597V2.62767M14 2.868L14.3161 2.48061C14.378 2.53113 14.4393 2.58004 14.5 2.62767M14 2.868H14.5V2.62767M5.16665 3.74407L11.5468 0.763586C11.5519 0.912693 11.5567 1.08339 11.5611 1.27507C11.5755 1.9094 11.5846 2.73919 11.5896 3.69714C11.5995 5.61254 11.5929 8.03218 11.5797 10.4081C11.5664 12.7838 11.5465 15.1143 11.5299 16.8511C11.5223 17.6453 11.5154 18.3153 11.5102 18.8086L4.97432 14.452L4.84837 14.368H4.697H2C1.17314 14.368 0.5 13.6949 0.5 12.868V6.86894C0.501118 6.59258 0.578814 6.32194 0.724466 6.08707C0.869157 5.85376 1.07528 5.66482 1.32019 5.54094L1.33281 5.53505L1.38926 5.50868L1.60734 5.4068L2.41794 5.02812L5.16665 3.74407ZM15.5 9.868C15.5 10.1549 15.3993 10.5887 15.2153 11.1178C15.0357 11.634 14.7937 12.1947 14.5476 12.7176C14.5317 12.7513 14.5159 12.7848 14.5 12.8182V6.32941C14.6841 6.65539 14.8495 7.01581 14.9912 7.3936C15.3222 8.27619 15.5 9.19108 15.5 9.868Z" fill="#FEFEFE" stroke="url(#paint0_linear)"/>
<defs>
<linearGradient id="paint0_linear" x1="9.99953" y1="0" x2="9.99953" y2="19.736" gradientUnits="userSpaceOnUse">
<stop stop-color="white"/>
<stop offset="1" stop-color="white" stop-opacity="0"/>
</linearGradient>
</defs>
</svg>
