<svg width="24" height="24" viewBox="0 0 24 24" fill="none" xmlns="http://www.w3.org/2000/svg">
<path d="M8.12001 14.7099L12 10.8299L15.88 14.7099C15.9726 14.8025 16.0825 14.876 16.2035 14.9261C16.3244 14.9762 16.4541 15.002 16.585 15.002C16.7159 15.002 16.8456 14.9762 16.9666 14.9261C17.0875 14.876 17.1974 14.8025 17.29 14.7099C17.3826 14.6174 17.456 14.5074 17.5061 14.3865C17.5562 14.2655 17.582 14.1359 17.582 14.0049C17.582 13.874 17.5562 13.7444 17.5061 13.6234C17.456 13.5024 17.3826 13.3925 17.29 13.2999L12.7 8.70993C12.31 8.31993 11.68 8.31993 11.29 8.70993L6.70001 13.2999C6.60731 13.3924 6.53376 13.5023 6.48358 13.6233C6.4334 13.7443 6.40757 13.874 6.40757 14.0049C6.40757 14.1359 6.4334 14.2656 6.48358 14.3866C6.53376 14.5075 6.60731 14.6174 6.70001 14.7099C7.09001 15.0899 7.73001 15.0999 8.12001 14.7099V14.7099Z" fill="white"/>
</svg>
